<svg width="178" height="22" viewBox="0 0 178 22" fill="none" xmlns="http://www.w3.org/2000/svg">
<path d="M17.4745 21.0218L9.84231 10.3633L16.9736 0.354299H12.7535C11.872 0.354299 11.047 0.788533 10.5479 1.51523L5.03903 9.53659V0.354299H0V21.0218H5.03903V11.5738L10.7829 19.8693C11.2827 20.5911 12.1048 21.0218 12.9828 21.0218H17.4745Z" fill="#48E28D"/>
<path d="M27.5383 0C21.4384 0 17.0477 4.57638 17.0477 10.6881C17.0477 16.8293 21.4384 21.4057 27.5383 21.4057C33.6382 21.4057 38.0289 16.8293 38.0289 10.6881C38.0289 4.57638 33.6382 0 27.5383 0ZM27.5383 16.534C23.9432 16.534 22.1162 13.611 22.1162 10.6881C22.1162 7.76508 23.9432 4.87163 27.5383 4.87163C31.1334 4.87163 32.9604 7.76508 32.9604 10.6881C32.9604 13.611 31.1334 16.534 27.5383 16.534Z" fill="#48E28D"/>
<path d="M59.9833 0.354299C58.8896 0.354299 57.8758 0.926601 57.3106 1.8629L52.1802 10.3633L47.0498 1.86291C46.4847 0.926603 45.4708 0.354299 44.3772 0.354299H40.835V21.0218H45.8741V8.73941L51.2667 17.6264H53.1232L58.4864 8.73941V21.0218H63.5549V0.354299H59.9833Z" fill="#48E28D"/>
<path d="M76.8339 0C70.734 0 66.3433 4.57638 66.3433 10.6881C66.3433 16.8293 70.734 21.4057 76.8339 21.4057C82.9338 21.4057 87.3245 16.8293 87.3245 10.6881C87.3245 4.57638 82.9338 0 76.8339 0ZM76.8339 16.534C73.2388 16.534 71.4118 13.611 71.4118 10.6881C71.4118 7.76508 73.2388 4.87163 76.8339 4.87163C80.429 4.87163 82.256 7.76508 82.256 10.6881C82.256 13.611 80.429 16.534 76.8339 16.534Z" fill="#48E28D"/>
<path d="M97.3503 0.354299H90.1306V18.3461C90.1306 19.8239 91.3286 21.0218 92.8063 21.0218H97.3503C104.246 21.0218 108.312 17.0064 108.312 10.6881C108.312 4.39923 104.246 0.354299 97.3503 0.354299ZM97.3503 16.2683H95.1991V5.13736H97.3503C100.739 5.13736 103.273 7.02696 103.273 10.6881C103.273 14.3492 100.739 16.2683 97.3503 16.2683Z" fill="#48E28D"/>
<path d="M120.863 0C114.763 0 110.373 4.57638 110.373 10.6881C110.373 16.8293 114.763 21.4057 120.863 21.4057C126.963 21.4057 131.354 16.8293 131.354 10.6881C131.354 4.57638 126.963 0 120.863 0ZM120.863 16.534C117.268 16.534 115.441 13.611 115.441 10.6881C115.441 7.76508 117.268 4.87163 120.863 4.87163C124.458 4.87163 126.285 7.76508 126.285 10.6881C126.285 13.611 124.458 16.534 120.863 16.534Z" fill="#48E28D"/>
<path d="M149.844 0C143.744 0 139.354 4.57638 139.354 10.6881C139.354 16.8293 143.744 21.4057 149.844 21.4057C155.944 21.4057 160.335 16.8293 160.335 10.6881C160.335 4.57638 155.944 0 149.844 0ZM149.844 16.534C146.249 16.534 144.422 13.611 144.422 10.6881C144.422 7.76508 146.249 4.87163 149.844 4.87163C153.439 4.87163 155.266 7.76508 155.266 10.6881C155.266 13.611 153.439 16.534 149.844 16.534Z" fill="#AFAFAF"/>
<path d="M171.259 8.73941C169.667 8.29654 167.222 7.91271 167.222 6.28883C167.222 5.10783 168.194 4.31065 169.667 4.31065C171.465 4.31065 172.319 5.31451 172.585 6.31836L177.241 5.16688C176.445 1.8896 173.439 0 169.903 0C165.601 0 162.33 2.362 162.33 6.31836C162.33 9.77279 164.186 11.6919 168.312 12.6958C170.64 13.2863 172.673 13.5225 172.673 15.0578C172.673 16.4159 171.376 17.095 169.638 17.095C167.398 17.095 166.308 15.8254 166.043 14.6444L161.387 16.0911C162.3 19.9294 165.895 21.4057 169.697 21.4057C174.854 21.4057 177.771 18.3351 177.771 14.9692C177.771 11.751 176.298 10.1566 171.259 8.73941Z" fill="#AFAFAF"/>
</svg>
