<svg width="462" height="327" viewBox="0 0 462 327" fill="none" xmlns="http://www.w3.org/2000/svg">
<path d="M38.984 110.151C47.1483 104.065 55.6661 98.4399 64.4666 93.345C167.634 33.7283 262.248 71.0905 267.196 73.0718C271.155 74.7701 346.754 107.887 324.841 156.217C313.502 181.205 338.23 191.921 364.232 203.189C387.749 213.38 412.309 224.023 412.175 246.084C412.139 257.901 396.341 285.074 362.447 304.639C340.322 317.447 310.457 327 272.215 327C175.339 327 -72.5597 193.296 38.984 110.151Z" fill="#EFEFEF"/>
<path d="M394.641 148.744L394.68 148.716C419.95 134.104 455.011 155.509 461.125 169.308C463.458 174.65 459.464 185.371 449.179 191.315C439.99 196.622 425.853 198.143 406.732 188.803C366.485 169.114 392.833 150.052 394.641 148.744Z" fill="#EFEFEF"/>
<path d="M439.884 119.314C439.212 118.253 438.399 117.227 437.481 116.378C436.42 115.387 435.254 114.503 434.017 113.795L421.717 106.684L409.418 99.572L397.083 92.4604L384.784 85.3489L372.484 78.2373L360.149 71.1258L347.85 64.0143L335.55 56.9027L323.215 49.7912L310.916 42.6796C306.675 40.3799 301.903 39.2123 297.061 39.2831C294.658 39.2831 292.219 39.5307 289.887 40.0614C288.508 40.3799 287.13 40.8398 285.822 41.3705C284.938 41.7243 284.09 42.1489 283.242 42.6442L255.709 58.6718L228.177 74.6993L200.609 90.656L173.077 106.684L145.544 122.711L118.012 138.739L90.4791 154.766L62.9466 170.794L35.4141 186.821L7.88158 202.778C8.16432 202.601 8.51776 202.53 8.83585 202.53C8.48241 202.53 8.16432 202.601 7.88158 202.778C6.64456 203.485 5.51357 204.335 4.48861 205.325C2.65075 207.059 1.30771 209.253 0.565496 211.658C0.176719 212.968 0 214.312 0 215.656V217.142C0 219.619 0.636182 222.096 1.8732 224.254C2.50938 225.351 3.32228 226.377 4.20587 227.297C5.33686 228.394 6.57387 229.384 7.95226 230.163L20.2871 237.274L32.5866 244.386L44.8861 251.497L57.221 258.609L69.5205 265.72L81.82 272.832L94.1548 279.943L106.454 287.055L118.754 294.167L131.089 301.278C135.33 303.578 140.101 304.745 144.908 304.675C147.311 304.675 149.75 304.427 152.083 303.896C153.461 303.578 154.839 303.118 156.147 302.587C157.031 302.233 157.914 301.809 158.727 301.313C158.833 301.243 158.975 301.172 159.081 301.066C158.975 301.172 158.869 301.243 158.727 301.313L186.26 285.286L213.792 269.258L241.325 253.231L268.857 237.203L296.39 221.176L323.922 205.148L351.455 189.121L378.987 173.093L406.555 157.172L434.088 141.144C436.385 139.871 438.364 138.031 439.778 135.802C440.485 134.705 441.015 133.502 441.404 132.228C441.757 130.955 441.969 129.646 441.969 128.301V126.78C441.934 124.162 441.227 121.579 439.884 119.314ZM129.569 297.988C129.604 298.377 129.64 298.801 129.746 299.191C129.675 298.766 129.604 298.377 129.569 297.988ZM138.687 289.85C139.642 290.062 140.631 290.239 141.586 290.345C140.596 290.239 139.642 290.062 138.687 289.85ZM431.967 113.937L308.831 42.7504C306.639 41.5474 304.271 40.6983 301.797 40.3091C300.242 40.0261 298.652 39.9199 297.061 39.9199C298.652 39.9199 300.242 40.0614 301.797 40.3091C304.271 40.6983 306.639 41.5121 308.831 42.7504C309.149 42.5735 309.467 42.4673 309.82 42.3966C309.467 42.432 309.113 42.5381 308.831 42.7504L431.967 113.937C435.219 115.812 436.88 118.288 436.88 120.765C436.88 118.253 435.219 115.776 431.967 113.901V113.937Z" fill="#48E28D"/>
<path d="M431.967 113.901C438.47 117.652 438.505 123.773 432.038 127.558L156.713 287.727C150.245 291.513 139.677 291.478 133.139 287.727L10.0376 216.612C3.49911 212.862 3.46377 206.705 9.96695 202.955L285.292 42.7858C291.76 39.0001 302.327 39.0001 308.831 42.7858L431.967 113.901Z" fill="#0C0C0C"/>
<path opacity="0.33" d="M431.967 74.7701C438.47 78.5204 438.505 84.6413 432.038 88.4271L156.713 248.596C150.245 252.382 139.677 252.346 133.139 248.596L10.0376 177.445C3.49911 173.695 3.46377 167.539 9.96695 163.788L285.292 3.61922C291.76 -0.16653 302.327 -0.16653 308.831 3.61922L431.967 74.7701Z" fill="url(#paint0_linear)"/>
<defs>
<linearGradient id="paint0_linear" x1="405.943" y1="120.672" x2="-15.2045" y2="133.01" gradientUnits="userSpaceOnUse">
<stop stop-color="#48E28D"/>
<stop offset="1" stop-color="#2222C6" stop-opacity="0"/>
</linearGradient>
</defs>
</svg>
