<svg width="310" height="212" viewBox="0 0 310 212" fill="none" xmlns="http://www.w3.org/2000/svg">
<path d="M15.746 0C7.04975 0 0 7.0387 0 15.7216V120.86C0 129.543 7.04975 136.582 15.746 136.582H80.3149C75.765 147.475 65.9742 155.641 54.0872 157.939C50.3519 158.661 47.2381 161.671 47.2381 165.47V205.364C47.2381 209.162 50.3332 212.27 54.1269 211.981C100.368 208.469 136.794 169.894 136.794 122.825C136.794 122.363 136.79 121.901 136.783 121.44C136.79 121.248 136.794 121.054 136.794 120.86V15.7216C136.794 7.0387 129.744 0 121.048 0H15.746Z" fill="#EFEFEF"/>
<path d="M188.952 0C180.256 0 173.206 7.0387 173.206 15.7216V120.86C173.206 129.543 180.256 136.582 188.952 136.582H253.521C248.971 147.475 239.181 155.641 227.294 157.939C223.558 158.661 220.444 161.671 220.444 165.47V205.364C220.444 209.162 223.54 212.27 227.333 211.981C273.575 208.469 310 169.894 310 122.825C310 122.363 309.997 121.901 309.99 121.44C309.996 121.248 310 121.054 310 120.86V15.7216C310 7.0387 302.95 0 294.254 0H188.952Z" fill="#EFEFEF"/>
</svg>
