<svg width="451" height="187" viewBox="0 0 451 187" fill="none" xmlns="http://www.w3.org/2000/svg">
<path d="M129.286 171.969C126.68 171.969 124 174.105 124 177.845C124 181.263 126.356 183.678 129.286 183.678C131.705 183.678 132.783 182.017 132.783 182.017V182.741C132.783 183.083 133.099 183.465 133.491 183.465H135.239V172.224H132.783V173.651C132.783 173.651 131.696 171.969 129.286 171.969ZM129.724 174.267C131.87 174.267 132.995 176.198 132.995 177.844C132.995 179.678 131.659 181.419 129.728 181.419C128.115 181.419 126.499 180.083 126.499 177.82C126.499 175.777 127.89 174.267 129.724 174.267Z" fill="black"/>
<path d="M138.652 183.465C138.275 183.465 137.944 183.188 137.944 182.741V172.225H140.4V173.616C140.957 172.76 142.044 171.966 143.713 171.966C146.441 171.966 147.893 174.19 147.893 176.27V183.465H146.186C145.739 183.465 145.437 183.082 145.437 182.699V176.823C145.437 175.67 144.747 174.27 143.15 174.27C141.426 174.27 140.4 175.936 140.4 177.504V183.465H138.652Z" fill="black"/>
<path d="M155.053 171.969C152.446 171.969 149.766 174.106 149.766 177.845C149.766 181.264 152.123 183.678 155.053 183.678C157.471 183.678 158.549 182.018 158.549 182.018V182.742C158.549 183.084 158.865 183.465 159.257 183.465H161.005V166.604H158.549V173.651C158.549 173.651 157.462 171.969 155.053 171.969ZM155.49 174.268C157.636 174.268 158.761 176.198 158.761 177.844C158.761 179.678 157.425 181.419 155.495 181.419C153.881 181.419 152.265 180.083 152.265 177.82C152.265 175.778 153.656 174.268 155.49 174.268V174.268Z" fill="black"/>
<path d="M164.418 183.465C164.041 183.465 163.711 183.189 163.711 182.742V172.225H166.167V174.098C166.589 173.049 167.502 172.097 169.122 172.097C169.574 172.097 169.996 172.182 169.996 172.182V174.779C169.996 174.779 169.469 174.566 168.831 174.566C167.108 174.566 166.167 176.232 166.167 177.801V183.465H164.418Z" fill="black"/>
<path d="M184.898 183.465C184.521 183.465 184.191 183.188 184.191 182.741V172.224H186.646V183.465H184.898Z" fill="black"/>
<path d="M193.847 171.969C191.241 171.969 188.561 174.106 188.561 177.845C188.561 181.264 190.917 183.678 193.847 183.678C196.266 183.678 197.344 182.018 197.344 182.018V182.742C197.344 183.084 197.66 183.465 198.052 183.465H199.8V166.604H197.344V173.651C197.344 173.651 196.257 171.969 193.847 171.969V171.969ZM194.285 174.268C196.431 174.268 197.556 176.198 197.556 177.844C197.556 179.678 196.22 181.419 194.289 181.419C192.676 181.419 191.06 180.083 191.06 177.82C191.06 175.778 192.451 174.268 194.285 174.268Z" fill="black"/>
<path d="M185.399 169.8C186.296 169.8 187.023 169.056 187.023 168.138C187.023 167.221 186.296 166.477 185.399 166.477C184.502 166.477 183.775 167.221 183.775 168.138C183.775 169.056 184.502 169.8 185.399 169.8Z" fill="black"/>
<path d="M176.473 171.965C173.743 171.965 170.745 174.05 170.745 177.825C170.745 181.265 173.299 183.679 176.467 183.679C180.372 183.679 182.278 180.468 182.278 177.847C182.278 174.63 179.823 171.965 176.473 171.965ZM176.482 174.311C178.37 174.311 179.778 175.868 179.778 177.832C179.778 179.831 178.283 181.373 176.488 181.373C174.821 181.373 173.201 179.986 173.201 177.866C173.201 175.71 174.742 174.311 176.482 174.311V174.311Z" fill="black"/>
<path d="M180.399 129.091L186.683 117.957C187.038 117.333 186.823 116.54 186.221 116.177C185.619 115.815 184.836 116.026 184.49 116.65L178.123 127.927C173.266 125.658 167.799 124.393 161.92 124.393C156.04 124.393 150.573 125.658 145.716 127.927L139.35 116.65C138.995 116.026 138.22 115.815 137.61 116.177C137 116.54 136.794 117.333 137.148 117.957L143.432 129.091C132.596 135.097 125.257 146.316 124.045 159.449H199.794C198.582 146.316 191.243 135.097 180.399 129.091ZM144.529 148.568C142.772 148.568 141.354 147.108 141.354 145.32C141.354 143.524 142.78 142.073 144.529 142.073C146.285 142.073 147.703 143.532 147.703 145.32C147.712 147.108 146.285 148.568 144.529 148.568ZM179.303 148.568C177.546 148.568 176.128 147.108 176.128 145.32C176.128 143.524 177.554 142.073 179.303 142.073C181.059 142.073 182.477 143.532 182.477 145.32C182.486 147.108 181.059 148.568 179.303 148.568Z" fill="#32DE84"/>
<path d="M7.29668 74V27.14H17.7907V74H7.29668ZM43.1847 74.396C39.3127 74.396 36.1227 73.34 33.6147 71.228C31.1507 69.072 29.9187 65.97 29.9187 61.922V49.646H23.3187V41H29.9187V31.826H39.8847V41H49.1247V49.646H39.8847V59.876C39.8847 61.856 40.3247 63.286 41.2047 64.166C42.0847 65.046 43.5147 65.486 45.4947 65.486C46.9907 65.486 48.2007 65.288 49.1247 64.892V73.736C47.6727 74.176 45.6927 74.396 43.1847 74.396ZM67.4351 37.964L59.8451 50.108H54.1031L59.0531 39.944C57.8651 39.504 56.8531 38.69 56.0171 37.502C55.1811 36.27 54.7631 34.906 54.7631 33.41C54.7631 31.474 55.4451 29.824 56.8091 28.46C58.2171 27.052 59.8891 26.348 61.8251 26.348C63.7611 26.348 65.4111 27.052 66.7751 28.46C68.1831 29.824 68.8871 31.474 68.8871 33.41C68.8871 34.95 68.4031 36.468 67.4351 37.964ZM86.0285 74.726C81.6285 74.726 77.9985 73.648 75.1385 71.492C72.3225 69.292 70.8265 66.542 70.6505 63.242H81.1445C81.2325 64.518 81.7605 65.508 82.7285 66.212C83.6965 66.872 84.9065 67.202 86.3585 67.202C88.8225 67.202 90.0545 66.498 90.0545 65.09C90.0545 64.386 89.7685 63.858 89.1965 63.506C88.6685 63.11 87.7005 62.714 86.2925 62.318L79.6265 60.602C74.0825 59.15 71.3105 55.696 71.3105 50.24C71.3105 47.292 72.5425 44.894 75.0065 43.046C77.4705 41.198 80.8365 40.274 85.1045 40.274C88.8885 40.274 92.0345 41.22 94.5425 43.112C97.0945 44.96 98.5025 47.578 98.7665 50.966H88.7345C88.3385 48.942 87.0625 47.93 84.9065 47.93C82.6625 47.93 81.5405 48.634 81.5405 50.042C81.5405 51.274 82.6625 52.132 84.9065 52.616L90.9125 54.2C94.2125 55.08 96.5885 56.356 98.0405 58.028C99.4925 59.7 100.218 61.878 100.218 64.562C100.218 67.598 98.8985 70.062 96.2585 71.954C93.6185 73.802 90.2085 74.726 86.0285 74.726Z" fill="#59CE8F"/>
<path d="M117.007 74L137.071 27.14H146.575L166.639 74H155.683L151.525 64.1H132.121L127.963 74H117.007ZM141.823 40.934L135.883 54.992H147.697L141.823 40.934ZM170.665 74V41H180.631V44.366C182.523 41.638 185.581 40.274 189.805 40.274C193.809 40.274 196.933 41.616 199.177 44.3C201.465 46.984 202.609 50.526 202.609 54.926V74H192.643V56.642C192.643 51.758 190.861 49.316 187.297 49.316C185.317 49.316 183.711 50.042 182.479 51.494C181.247 52.946 180.631 55.102 180.631 57.962V74H170.665ZM223.7 74.726C219.432 74.726 215.802 73.032 212.81 69.644C209.862 66.256 208.388 62.208 208.388 57.5C208.388 52.792 209.862 48.744 212.81 45.356C215.802 41.968 219.432 40.274 223.7 40.274C227.484 40.274 230.476 41.616 232.676 44.3V24.5H242.642V74H232.676V70.7C230.476 73.384 227.484 74.726 223.7 74.726ZM220.466 63.374C221.874 64.914 223.7 65.684 225.944 65.684C228.188 65.684 229.992 64.914 231.356 63.374C232.764 61.834 233.468 59.876 233.468 57.5C233.468 55.124 232.764 53.166 231.356 51.626C229.992 50.086 228.188 49.316 225.944 49.316C223.7 49.316 221.874 50.086 220.466 51.626C219.102 53.166 218.42 55.124 218.42 57.5C218.42 59.876 219.102 61.834 220.466 63.374ZM250.845 74V41H260.811V45.95C261.339 44.454 262.329 43.2 263.781 42.188C265.233 41.132 266.861 40.604 268.665 40.604C269.809 40.604 270.887 40.736 271.899 41V51.098C270.359 50.57 268.885 50.306 267.477 50.306C265.365 50.306 263.715 51.054 262.527 52.55C261.383 54.002 260.811 55.938 260.811 58.358V74H250.845ZM303.892 69.776C300.504 73.076 296.412 74.726 291.616 74.726C286.82 74.726 282.728 73.076 279.34 69.776C275.952 66.432 274.258 62.34 274.258 57.5C274.258 52.66 275.952 48.59 279.34 45.29C282.728 41.946 286.82 40.274 291.616 40.274C296.412 40.274 300.504 41.946 303.892 45.29C307.28 48.59 308.974 52.66 308.974 57.5C308.974 62.34 307.28 66.432 303.892 69.776ZM286.336 63.242C287.744 64.694 289.504 65.42 291.616 65.42C293.728 65.42 295.466 64.694 296.83 63.242C298.238 61.79 298.942 59.876 298.942 57.5C298.942 55.124 298.238 53.21 296.83 51.758C295.466 50.306 293.728 49.58 291.616 49.58C289.504 49.58 287.744 50.306 286.336 51.758C284.972 53.21 284.29 55.124 284.29 57.5C284.29 59.876 284.972 61.79 286.336 63.242ZM320.055 36.512C318.383 36.512 316.931 35.918 315.699 34.73C314.467 33.498 313.851 32.024 313.851 30.308C313.851 28.592 314.467 27.14 315.699 25.952C316.931 24.72 318.383 24.104 320.055 24.104C321.815 24.104 323.289 24.72 324.477 25.952C325.709 27.14 326.325 28.592 326.325 30.308C326.325 32.024 325.709 33.498 324.477 34.73C323.289 35.918 321.815 36.512 320.055 36.512ZM315.105 74V41H325.071V74H315.105ZM346.612 74.726C342.344 74.726 338.714 73.032 335.722 69.644C332.774 66.256 331.3 62.208 331.3 57.5C331.3 52.792 332.774 48.744 335.722 45.356C338.714 41.968 342.344 40.274 346.612 40.274C350.396 40.274 353.388 41.616 355.588 44.3V24.5H365.554V74H355.588V70.7C353.388 73.384 350.396 74.726 346.612 74.726ZM343.378 63.374C344.786 64.914 346.612 65.684 348.856 65.684C351.1 65.684 352.904 64.914 354.268 63.374C355.676 61.834 356.38 59.876 356.38 57.5C356.38 55.124 355.676 53.166 354.268 51.626C352.904 50.086 351.1 49.316 348.856 49.316C346.612 49.316 344.786 50.086 343.378 51.626C342.014 53.166 341.332 55.124 341.332 57.5C341.332 59.876 342.014 61.834 343.378 63.374ZM394.653 74V36.974H384.489L391.617 27.14H404.619V74H394.653ZM444.476 64.166V74H412.136V70.634C412.136 69.358 412.268 68.126 412.532 66.938C412.796 65.706 413.104 64.65 413.456 63.77C413.808 62.846 414.358 61.9 415.106 60.932C415.854 59.964 416.492 59.172 417.02 58.556C417.548 57.94 418.34 57.214 419.396 56.378C420.452 55.498 421.266 54.86 421.838 54.464C422.41 54.024 423.312 53.386 424.544 52.55C425.776 51.67 426.634 51.054 427.118 50.702C431.826 47.358 434.18 44.366 434.18 41.726C434.18 40.098 433.696 38.778 432.728 37.766C431.804 36.71 430.44 36.182 428.636 36.182C426.744 36.182 425.204 36.754 424.016 37.898C422.872 39.042 422.3 40.428 422.3 42.056H412.334C412.334 37.48 413.896 33.718 417.02 30.77C420.188 27.822 424.17 26.348 428.966 26.348C433.19 26.348 436.776 27.646 439.724 30.242C442.672 32.794 444.146 36.38 444.146 41C444.146 43.684 443.684 46.082 442.76 48.194C441.836 50.306 440.758 52 439.526 53.276C438.294 54.552 436.622 55.982 434.51 57.566C434.422 57.61 433.542 58.182 431.87 59.282C430.242 60.338 428.988 61.24 428.108 61.988C427.228 62.736 426.59 63.462 426.194 64.166H444.476Z" fill="#333333"/>
<path d="M284.5 184C305.763 184 323 166.763 323 145.5C323 124.237 305.763 107 284.5 107C263.237 107 246 124.237 246 145.5C246 166.763 263.237 184 284.5 184Z" fill="#32DE84"/>
<path d="M265.551 127.543C267.14 127.553 268.661 128.191 269.781 129.318C270.902 130.445 271.53 131.97 271.53 133.559V163.457" stroke="white" stroke-width="2.59587" stroke-linecap="round"/>
<path d="M303.449 163.457H279.513V157.471C279.513 154.296 280.774 151.251 283.019 149.006C285.264 146.761 288.309 145.5 291.484 145.5H297.5C298.288 145.5 299.069 145.344 299.796 145.041C300.524 144.739 301.185 144.295 301.741 143.736C302.296 143.177 302.736 142.513 303.035 141.784C303.333 141.054 303.484 140.273 303.479 139.484C303.48 136.656 302.479 133.918 300.655 131.757C298.829 129.596 296.298 128.15 293.509 127.678C290.72 127.205 287.854 127.735 285.419 129.174C282.984 130.612 281.136 132.867 280.205 135.538C279.979 136.183 279.806 136.844 279.687 137.517" stroke="white" stroke-width="2.59587" stroke-linecap="round"/>
</svg>
