<svg width="178" height="178" viewBox="0 0 178 178" fill="none" xmlns="http://www.w3.org/2000/svg">
<g clip-path="url(#clip0_858_64)">
<path fill-rule="evenodd" clip-rule="evenodd" d="M98.2653 0.777039V28.0968L-0.0263672 126.127V177.552C25.7551 177.552 36.2288 182.373 55.5648 162.285C78.1236 138.179 103.099 114.877 125.658 91.5751C142.577 74.7012 160.302 57.0237 177.221 40.1497V17.651C177.221 14.4369 176.415 12.0264 175.61 10.4193C173.998 7.20522 170.776 3.99113 167.553 2.38408C165.942 1.58056 163.525 0.777039 159.496 0.777039C139.354 0.777039 118.407 0.777039 98.2653 0.777039Z" fill="#59CE8F"/>
<path fill-rule="evenodd" clip-rule="evenodd" d="M-0.0263672 -0.0264893H57.9818V19.2581L18.504 58.6307H-0.0263672V-0.0264893Z" fill="#59CE8F"/>
<path fill-rule="evenodd" clip-rule="evenodd" d="M97.4336 177.785H178V97.4332L97.4336 177.785Z" fill="#59CE8F"/>
</g>
<defs>
<clipPath id="clip0_858_64">
<rect width="178" height="178" fill="white"/>
</clipPath>
</defs>
</svg>
